<mxfile host="app.diagrams.net" agent="Mozilla/5.0 (Windows NT 10.0; Win64; x64) AppleWebKit/537.36 (KHTML, like Gecko) Chrome/130.0.0.0 Safari/537.36 Edg/130.0.0.0" version="24.8.3" pages="4">
  <diagram name="Page-1" id="2YBvvXClWsGukQMizWep">
    <mxGraphModel dx="842" dy="894" grid="1" gridSize="10" guides="1" tooltips="1" connect="1" arrows="1" fold="1" page="1" pageScale="1" pageWidth="850" pageHeight="1100" math="0" shadow="0">
      <root>
        <mxCell id="0" />
        <mxCell id="1" parent="0" />
        <mxCell id="aM9ryv3xv72pqoxQDRHE-5" value="웹브라우저" style="shape=umlLifeline;perimeter=lifelinePerimeter;whiteSpace=wrap;html=1;container=0;dropTarget=0;collapsible=0;recursiveResize=0;outlineConnect=0;portConstraint=eastwest;newEdgeStyle={&quot;edgeStyle&quot;:&quot;elbowEdgeStyle&quot;,&quot;elbow&quot;:&quot;vertical&quot;,&quot;curved&quot;:0,&quot;rounded&quot;:0};" parent="1" vertex="1">
          <mxGeometry x="307.5" y="70" width="100" height="300" as="geometry" />
        </mxCell>
        <mxCell id="aM9ryv3xv72pqoxQDRHE-6" value="" style="html=1;points=[];perimeter=orthogonalPerimeter;outlineConnect=0;targetShapes=umlLifeline;portConstraint=eastwest;newEdgeStyle={&quot;edgeStyle&quot;:&quot;elbowEdgeStyle&quot;,&quot;elbow&quot;:&quot;vertical&quot;,&quot;curved&quot;:0,&quot;rounded&quot;:0};" parent="aM9ryv3xv72pqoxQDRHE-5" vertex="1">
          <mxGeometry x="45" y="80" width="10" height="170" as="geometry" />
        </mxCell>
        <mxCell id="EDiRfuS-k3jFseiBivye-4" value="사용자" style="shape=umlActor;verticalLabelPosition=bottom;verticalAlign=top;html=1;" parent="1" vertex="1">
          <mxGeometry x="167.5" y="40" width="25" height="50" as="geometry" />
        </mxCell>
        <mxCell id="EDiRfuS-k3jFseiBivye-6" value="" style="shape=umlLifeline;perimeter=lifelinePerimeter;whiteSpace=wrap;html=1;container=0;dropTarget=0;collapsible=0;recursiveResize=0;outlineConnect=0;portConstraint=eastwest;newEdgeStyle={&quot;edgeStyle&quot;:&quot;elbowEdgeStyle&quot;,&quot;elbow&quot;:&quot;vertical&quot;,&quot;curved&quot;:0,&quot;rounded&quot;:0};size=0;" parent="1" vertex="1">
          <mxGeometry x="130" y="110" width="100" height="260" as="geometry" />
        </mxCell>
        <mxCell id="EDiRfuS-k3jFseiBivye-7" value="" style="html=1;points=[];perimeter=orthogonalPerimeter;outlineConnect=0;targetShapes=umlLifeline;portConstraint=eastwest;newEdgeStyle={&quot;edgeStyle&quot;:&quot;elbowEdgeStyle&quot;,&quot;elbow&quot;:&quot;vertical&quot;,&quot;curved&quot;:0,&quot;rounded&quot;:0};" parent="EDiRfuS-k3jFseiBivye-6" vertex="1">
          <mxGeometry x="45" y="35" width="10" height="185" as="geometry" />
        </mxCell>
        <mxCell id="EDiRfuS-k3jFseiBivye-9" value="서버 API" style="shape=umlLifeline;perimeter=lifelinePerimeter;whiteSpace=wrap;html=1;container=0;dropTarget=0;collapsible=0;recursiveResize=0;outlineConnect=0;portConstraint=eastwest;newEdgeStyle={&quot;edgeStyle&quot;:&quot;elbowEdgeStyle&quot;,&quot;elbow&quot;:&quot;vertical&quot;,&quot;curved&quot;:0,&quot;rounded&quot;:0};" parent="1" vertex="1">
          <mxGeometry x="490" y="70" width="100" height="300" as="geometry" />
        </mxCell>
        <mxCell id="EDiRfuS-k3jFseiBivye-10" value="" style="html=1;points=[];perimeter=orthogonalPerimeter;outlineConnect=0;targetShapes=umlLifeline;portConstraint=eastwest;newEdgeStyle={&quot;edgeStyle&quot;:&quot;elbowEdgeStyle&quot;,&quot;elbow&quot;:&quot;vertical&quot;,&quot;curved&quot;:0,&quot;rounded&quot;:0};" parent="EDiRfuS-k3jFseiBivye-9" vertex="1">
          <mxGeometry x="45" y="100" width="10" height="140" as="geometry" />
        </mxCell>
        <mxCell id="EDiRfuS-k3jFseiBivye-11" value="정기주차 신청" style="html=1;verticalAlign=bottom;endArrow=block;edgeStyle=elbowEdgeStyle;elbow=horizontal;curved=0;rounded=0;" parent="1" edge="1">
          <mxGeometry relative="1" as="geometry">
            <mxPoint x="182.5" y="150" as="sourcePoint" />
            <Array as="points">
              <mxPoint x="267.5" y="150" />
            </Array>
            <mxPoint x="353" y="150" as="targetPoint" />
          </mxGeometry>
        </mxCell>
        <mxCell id="EDiRfuS-k3jFseiBivye-12" value="정기주차 신청" style="html=1;verticalAlign=bottom;endArrow=block;edgeStyle=elbowEdgeStyle;elbow=vertical;curved=0;rounded=0;" parent="1" edge="1">
          <mxGeometry relative="1" as="geometry">
            <mxPoint x="365" y="175" as="sourcePoint" />
            <Array as="points">
              <mxPoint x="450" y="175" />
            </Array>
            <mxPoint x="535.5" y="175" as="targetPoint" />
          </mxGeometry>
        </mxCell>
        <mxCell id="EDiRfuS-k3jFseiBivye-20" value="" style="shape=umlLifeline;perimeter=lifelinePerimeter;whiteSpace=wrap;html=1;container=0;dropTarget=0;collapsible=0;recursiveResize=0;outlineConnect=0;portConstraint=eastwest;newEdgeStyle={&quot;edgeStyle&quot;:&quot;elbowEdgeStyle&quot;,&quot;elbow&quot;:&quot;vertical&quot;,&quot;curved&quot;:0,&quot;rounded&quot;:0};size=0;" parent="1" vertex="1">
          <mxGeometry x="670" y="110" width="100" height="260" as="geometry" />
        </mxCell>
        <mxCell id="EDiRfuS-k3jFseiBivye-21" value="" style="html=1;points=[];perimeter=orthogonalPerimeter;outlineConnect=0;targetShapes=umlLifeline;portConstraint=eastwest;newEdgeStyle={&quot;edgeStyle&quot;:&quot;elbowEdgeStyle&quot;,&quot;elbow&quot;:&quot;vertical&quot;,&quot;curved&quot;:0,&quot;rounded&quot;:0};" parent="EDiRfuS-k3jFseiBivye-20" vertex="1">
          <mxGeometry x="45" y="70" width="10" height="40" as="geometry" />
        </mxCell>
        <mxCell id="EDiRfuS-k3jFseiBivye-22" value="" style="shape=cylinder3;whiteSpace=wrap;html=1;boundedLbl=1;backgroundOutline=1;size=5.277760823567782;" parent="1" vertex="1">
          <mxGeometry x="732.5" y="70" width="17.5" height="20" as="geometry" />
        </mxCell>
        <mxCell id="EDiRfuS-k3jFseiBivye-23" value="정기주차 신청 내역&amp;nbsp;" style="html=1;verticalAlign=bottom;endArrow=block;edgeStyle=elbowEdgeStyle;elbow=vertical;curved=0;rounded=0;" parent="1" edge="1">
          <mxGeometry relative="1" as="geometry">
            <mxPoint x="546" y="190" as="sourcePoint" />
            <Array as="points">
              <mxPoint x="631" y="190" />
            </Array>
            <mxPoint x="716.5" y="190" as="targetPoint" />
          </mxGeometry>
        </mxCell>
        <mxCell id="EDiRfuS-k3jFseiBivye-24" value="DB" style="shape=umlActor;verticalLabelPosition=bottom;verticalAlign=top;html=1;" parent="1" vertex="1">
          <mxGeometry x="707.5" y="40" width="25" height="50" as="geometry" />
        </mxCell>
        <mxCell id="wVa97QRf675WXW742vAO-21" value="return data" style="html=1;verticalAlign=bottom;endArrow=open;dashed=1;endSize=8;edgeStyle=elbowEdgeStyle;elbow=vertical;curved=0;rounded=0;" edge="1" parent="1">
          <mxGeometry relative="1" as="geometry">
            <mxPoint x="543" y="212" as="targetPoint" />
            <Array as="points">
              <mxPoint x="638" y="212" />
            </Array>
            <mxPoint x="713" y="212" as="sourcePoint" />
          </mxGeometry>
        </mxCell>
        <mxCell id="wVa97QRf675WXW742vAO-23" value="alt" style="shape=umlFrame;whiteSpace=wrap;html=1;pointerEvents=0;recursiveResize=0;container=1;collapsible=0;width=50;height=30;" vertex="1" parent="1">
          <mxGeometry x="157.5" y="200" width="392.5" height="160" as="geometry" />
        </mxCell>
        <mxCell id="wVa97QRf675WXW742vAO-24" value="정기주차 신청 성공" style="html=1;verticalAlign=bottom;endArrow=open;dashed=1;endSize=8;edgeStyle=elbowEdgeStyle;elbow=vertical;curved=0;rounded=0;" edge="1" parent="wVa97QRf675WXW742vAO-23">
          <mxGeometry relative="1" as="geometry">
            <mxPoint x="22.5" y="60" as="targetPoint" />
            <Array as="points">
              <mxPoint x="117.5" y="60" />
            </Array>
            <mxPoint x="192.5" y="60" as="sourcePoint" />
            <mxPoint as="offset" />
          </mxGeometry>
        </mxCell>
        <mxCell id="wVa97QRf675WXW742vAO-25" value="&lt;font color=&quot;#3333ff&quot;&gt;[성공]&lt;/font&gt;" style="text;html=1;align=center;verticalAlign=middle;resizable=0;points=[];autosize=1;strokeColor=none;fillColor=none;" vertex="1" parent="wVa97QRf675WXW742vAO-23">
          <mxGeometry x="52.5" y="-4" width="50" height="30" as="geometry" />
        </mxCell>
        <mxCell id="wVa97QRf675WXW742vAO-27" value="" style="endArrow=none;html=1;rounded=0;entryX=0.999;entryY=0.498;entryDx=0;entryDy=0;entryPerimeter=0;" edge="1" parent="wVa97QRf675WXW742vAO-23" target="wVa97QRf675WXW742vAO-23">
          <mxGeometry width="50" height="50" relative="1" as="geometry">
            <mxPoint x="2.5" y="79.5" as="sourcePoint" />
            <mxPoint x="382.5" y="80" as="targetPoint" />
          </mxGeometry>
        </mxCell>
        <mxCell id="wVa97QRf675WXW742vAO-33" value="&lt;font color=&quot;#3333ff&quot;&gt;[실패]&lt;/font&gt;" style="text;html=1;align=center;verticalAlign=middle;resizable=0;points=[];autosize=1;strokeColor=none;fillColor=none;" vertex="1" parent="wVa97QRf675WXW742vAO-23">
          <mxGeometry x="52.5" y="74" width="50" height="30" as="geometry" />
        </mxCell>
        <mxCell id="wVa97QRf675WXW742vAO-22" value="reply data&lt;div&gt;(result = 성공)&lt;/div&gt;" style="html=1;verticalAlign=bottom;endArrow=open;dashed=1;endSize=8;edgeStyle=elbowEdgeStyle;elbow=vertical;curved=0;rounded=0;" edge="1" parent="wVa97QRf675WXW742vAO-23">
          <mxGeometry relative="1" as="geometry">
            <mxPoint x="205.5" y="30" as="targetPoint" />
            <Array as="points">
              <mxPoint x="300.5" y="30" />
            </Array>
            <mxPoint x="375.5" y="30" as="sourcePoint" />
            <mxPoint as="offset" />
          </mxGeometry>
        </mxCell>
        <mxCell id="wVa97QRf675WXW742vAO-34" value="reply data&lt;div&gt;(result = 실패)&lt;/div&gt;" style="html=1;verticalAlign=bottom;endArrow=open;dashed=1;endSize=8;edgeStyle=elbowEdgeStyle;elbow=horizontal;curved=0;rounded=0;" edge="1" parent="wVa97QRf675WXW742vAO-23">
          <mxGeometry relative="1" as="geometry">
            <mxPoint x="212.5" y="110" as="targetPoint" />
            <Array as="points">
              <mxPoint x="307.5" y="110" />
            </Array>
            <mxPoint x="382.5" y="110" as="sourcePoint" />
            <mxPoint as="offset" />
          </mxGeometry>
        </mxCell>
        <mxCell id="wVa97QRf675WXW742vAO-35" value="정기주차 신청 실패" style="html=1;verticalAlign=bottom;endArrow=open;dashed=1;endSize=8;edgeStyle=elbowEdgeStyle;elbow=vertical;curved=0;rounded=0;" edge="1" parent="wVa97QRf675WXW742vAO-23">
          <mxGeometry relative="1" as="geometry">
            <mxPoint x="22.5" y="120" as="targetPoint" />
            <Array as="points">
              <mxPoint x="117.5" y="120" />
            </Array>
            <mxPoint x="192.5" y="120" as="sourcePoint" />
            <mxPoint as="offset" />
          </mxGeometry>
        </mxCell>
        <mxCell id="wVa97QRf675WXW742vAO-36" value="웹브라우저" style="shape=umlLifeline;perimeter=lifelinePerimeter;whiteSpace=wrap;html=1;container=0;dropTarget=0;collapsible=0;recursiveResize=0;outlineConnect=0;portConstraint=eastwest;newEdgeStyle={&quot;edgeStyle&quot;:&quot;elbowEdgeStyle&quot;,&quot;elbow&quot;:&quot;vertical&quot;,&quot;curved&quot;:0,&quot;rounded&quot;:0};" vertex="1" parent="1">
          <mxGeometry x="317.5" y="460" width="100" height="300" as="geometry" />
        </mxCell>
        <mxCell id="wVa97QRf675WXW742vAO-37" value="" style="html=1;points=[];perimeter=orthogonalPerimeter;outlineConnect=0;targetShapes=umlLifeline;portConstraint=eastwest;newEdgeStyle={&quot;edgeStyle&quot;:&quot;elbowEdgeStyle&quot;,&quot;elbow&quot;:&quot;vertical&quot;,&quot;curved&quot;:0,&quot;rounded&quot;:0};" vertex="1" parent="wVa97QRf675WXW742vAO-36">
          <mxGeometry x="45" y="80" width="10" height="170" as="geometry" />
        </mxCell>
        <mxCell id="wVa97QRf675WXW742vAO-38" value="사용자" style="shape=umlActor;verticalLabelPosition=bottom;verticalAlign=top;html=1;" vertex="1" parent="1">
          <mxGeometry x="177.5" y="430" width="25" height="50" as="geometry" />
        </mxCell>
        <mxCell id="wVa97QRf675WXW742vAO-39" value="" style="shape=umlLifeline;perimeter=lifelinePerimeter;whiteSpace=wrap;html=1;container=0;dropTarget=0;collapsible=0;recursiveResize=0;outlineConnect=0;portConstraint=eastwest;newEdgeStyle={&quot;edgeStyle&quot;:&quot;elbowEdgeStyle&quot;,&quot;elbow&quot;:&quot;vertical&quot;,&quot;curved&quot;:0,&quot;rounded&quot;:0};size=0;" vertex="1" parent="1">
          <mxGeometry x="140" y="500" width="100" height="260" as="geometry" />
        </mxCell>
        <mxCell id="wVa97QRf675WXW742vAO-40" value="" style="html=1;points=[];perimeter=orthogonalPerimeter;outlineConnect=0;targetShapes=umlLifeline;portConstraint=eastwest;newEdgeStyle={&quot;edgeStyle&quot;:&quot;elbowEdgeStyle&quot;,&quot;elbow&quot;:&quot;vertical&quot;,&quot;curved&quot;:0,&quot;rounded&quot;:0};" vertex="1" parent="wVa97QRf675WXW742vAO-39">
          <mxGeometry x="45" y="35" width="10" height="185" as="geometry" />
        </mxCell>
        <mxCell id="wVa97QRf675WXW742vAO-41" value="서버 API" style="shape=umlLifeline;perimeter=lifelinePerimeter;whiteSpace=wrap;html=1;container=0;dropTarget=0;collapsible=0;recursiveResize=0;outlineConnect=0;portConstraint=eastwest;newEdgeStyle={&quot;edgeStyle&quot;:&quot;elbowEdgeStyle&quot;,&quot;elbow&quot;:&quot;vertical&quot;,&quot;curved&quot;:0,&quot;rounded&quot;:0};" vertex="1" parent="1">
          <mxGeometry x="500" y="460" width="100" height="300" as="geometry" />
        </mxCell>
        <mxCell id="wVa97QRf675WXW742vAO-42" value="" style="html=1;points=[];perimeter=orthogonalPerimeter;outlineConnect=0;targetShapes=umlLifeline;portConstraint=eastwest;newEdgeStyle={&quot;edgeStyle&quot;:&quot;elbowEdgeStyle&quot;,&quot;elbow&quot;:&quot;vertical&quot;,&quot;curved&quot;:0,&quot;rounded&quot;:0};" vertex="1" parent="wVa97QRf675WXW742vAO-41">
          <mxGeometry x="45" y="100" width="10" height="140" as="geometry" />
        </mxCell>
        <mxCell id="wVa97QRf675WXW742vAO-43" value="신청 결과 조회" style="html=1;verticalAlign=bottom;endArrow=block;edgeStyle=elbowEdgeStyle;elbow=horizontal;curved=0;rounded=0;" edge="1" parent="1">
          <mxGeometry relative="1" as="geometry">
            <mxPoint x="192.5" y="540" as="sourcePoint" />
            <Array as="points">
              <mxPoint x="277.5" y="540" />
            </Array>
            <mxPoint x="363" y="540" as="targetPoint" />
          </mxGeometry>
        </mxCell>
        <mxCell id="wVa97QRf675WXW742vAO-44" value="신청 결과 조회" style="html=1;verticalAlign=bottom;endArrow=block;edgeStyle=elbowEdgeStyle;elbow=vertical;curved=0;rounded=0;" edge="1" parent="1">
          <mxGeometry relative="1" as="geometry">
            <mxPoint x="375" y="565" as="sourcePoint" />
            <Array as="points">
              <mxPoint x="460" y="565" />
            </Array>
            <mxPoint x="545.5" y="565" as="targetPoint" />
          </mxGeometry>
        </mxCell>
        <mxCell id="wVa97QRf675WXW742vAO-45" value="" style="shape=umlLifeline;perimeter=lifelinePerimeter;whiteSpace=wrap;html=1;container=0;dropTarget=0;collapsible=0;recursiveResize=0;outlineConnect=0;portConstraint=eastwest;newEdgeStyle={&quot;edgeStyle&quot;:&quot;elbowEdgeStyle&quot;,&quot;elbow&quot;:&quot;vertical&quot;,&quot;curved&quot;:0,&quot;rounded&quot;:0};size=0;" vertex="1" parent="1">
          <mxGeometry x="680" y="500" width="100" height="260" as="geometry" />
        </mxCell>
        <mxCell id="wVa97QRf675WXW742vAO-46" value="" style="html=1;points=[];perimeter=orthogonalPerimeter;outlineConnect=0;targetShapes=umlLifeline;portConstraint=eastwest;newEdgeStyle={&quot;edgeStyle&quot;:&quot;elbowEdgeStyle&quot;,&quot;elbow&quot;:&quot;vertical&quot;,&quot;curved&quot;:0,&quot;rounded&quot;:0};" vertex="1" parent="wVa97QRf675WXW742vAO-45">
          <mxGeometry x="45" y="70" width="10" height="40" as="geometry" />
        </mxCell>
        <mxCell id="wVa97QRf675WXW742vAO-47" value="" style="shape=cylinder3;whiteSpace=wrap;html=1;boundedLbl=1;backgroundOutline=1;size=5.277760823567782;" vertex="1" parent="1">
          <mxGeometry x="742.5" y="460" width="17.5" height="20" as="geometry" />
        </mxCell>
        <mxCell id="wVa97QRf675WXW742vAO-48" value="신청 결과 조회" style="html=1;verticalAlign=bottom;endArrow=block;edgeStyle=elbowEdgeStyle;elbow=vertical;curved=0;rounded=0;" edge="1" parent="1">
          <mxGeometry relative="1" as="geometry">
            <mxPoint x="556" y="580" as="sourcePoint" />
            <Array as="points">
              <mxPoint x="641" y="580" />
            </Array>
            <mxPoint x="726.5" y="580" as="targetPoint" />
          </mxGeometry>
        </mxCell>
        <mxCell id="wVa97QRf675WXW742vAO-49" value="DB" style="shape=umlActor;verticalLabelPosition=bottom;verticalAlign=top;html=1;" vertex="1" parent="1">
          <mxGeometry x="717.5" y="430" width="25" height="50" as="geometry" />
        </mxCell>
        <mxCell id="wVa97QRf675WXW742vAO-50" value="return data" style="html=1;verticalAlign=bottom;endArrow=open;dashed=1;endSize=8;edgeStyle=elbowEdgeStyle;elbow=vertical;curved=0;rounded=0;" edge="1" parent="1">
          <mxGeometry relative="1" as="geometry">
            <mxPoint x="553" y="602" as="targetPoint" />
            <Array as="points">
              <mxPoint x="648" y="602" />
            </Array>
            <mxPoint x="723" y="602" as="sourcePoint" />
          </mxGeometry>
        </mxCell>
        <mxCell id="wVa97QRf675WXW742vAO-51" value="alt" style="shape=umlFrame;whiteSpace=wrap;html=1;pointerEvents=0;recursiveResize=0;container=1;collapsible=0;width=50;height=30;" vertex="1" parent="1">
          <mxGeometry x="167.5" y="590" width="392.5" height="160" as="geometry" />
        </mxCell>
        <mxCell id="wVa97QRf675WXW742vAO-52" value="정기주차 신청 선정" style="html=1;verticalAlign=bottom;endArrow=open;dashed=1;endSize=8;edgeStyle=elbowEdgeStyle;elbow=vertical;curved=0;rounded=0;" edge="1" parent="wVa97QRf675WXW742vAO-51">
          <mxGeometry relative="1" as="geometry">
            <mxPoint x="22.5" y="60" as="targetPoint" />
            <Array as="points">
              <mxPoint x="117.5" y="60" />
            </Array>
            <mxPoint x="192.5" y="60" as="sourcePoint" />
            <mxPoint as="offset" />
          </mxGeometry>
        </mxCell>
        <mxCell id="wVa97QRf675WXW742vAO-53" value="&lt;font color=&quot;#3333ff&quot;&gt;[성공]&lt;/font&gt;" style="text;html=1;align=center;verticalAlign=middle;resizable=0;points=[];autosize=1;strokeColor=none;fillColor=none;" vertex="1" parent="wVa97QRf675WXW742vAO-51">
          <mxGeometry x="52.5" y="-4" width="50" height="30" as="geometry" />
        </mxCell>
        <mxCell id="wVa97QRf675WXW742vAO-54" value="" style="endArrow=none;html=1;rounded=0;entryX=0.999;entryY=0.498;entryDx=0;entryDy=0;entryPerimeter=0;" edge="1" parent="wVa97QRf675WXW742vAO-51" target="wVa97QRf675WXW742vAO-51">
          <mxGeometry width="50" height="50" relative="1" as="geometry">
            <mxPoint x="2.5" y="79.5" as="sourcePoint" />
            <mxPoint x="382.5" y="80" as="targetPoint" />
          </mxGeometry>
        </mxCell>
        <mxCell id="wVa97QRf675WXW742vAO-55" value="&lt;font color=&quot;#3333ff&quot;&gt;[실패]&lt;/font&gt;" style="text;html=1;align=center;verticalAlign=middle;resizable=0;points=[];autosize=1;strokeColor=none;fillColor=none;" vertex="1" parent="wVa97QRf675WXW742vAO-51">
          <mxGeometry x="52.5" y="74" width="50" height="30" as="geometry" />
        </mxCell>
        <mxCell id="wVa97QRf675WXW742vAO-56" value="reply data&lt;div&gt;(result = 선정)&lt;/div&gt;" style="html=1;verticalAlign=bottom;endArrow=open;dashed=1;endSize=8;edgeStyle=elbowEdgeStyle;elbow=horizontal;curved=0;rounded=0;" edge="1" parent="wVa97QRf675WXW742vAO-51">
          <mxGeometry relative="1" as="geometry">
            <mxPoint x="205.5" y="30" as="targetPoint" />
            <Array as="points">
              <mxPoint x="300.5" y="30" />
            </Array>
            <mxPoint x="375.5" y="30" as="sourcePoint" />
            <mxPoint as="offset" />
          </mxGeometry>
        </mxCell>
        <mxCell id="wVa97QRf675WXW742vAO-57" value="reply data&lt;div&gt;(result = 탈락)&lt;/div&gt;" style="html=1;verticalAlign=bottom;endArrow=open;dashed=1;endSize=8;edgeStyle=elbowEdgeStyle;elbow=horizontal;curved=0;rounded=0;" edge="1" parent="wVa97QRf675WXW742vAO-51">
          <mxGeometry relative="1" as="geometry">
            <mxPoint x="212.5" y="110" as="targetPoint" />
            <Array as="points">
              <mxPoint x="307.5" y="110" />
            </Array>
            <mxPoint x="382.5" y="110" as="sourcePoint" />
            <mxPoint as="offset" />
          </mxGeometry>
        </mxCell>
        <mxCell id="wVa97QRf675WXW742vAO-58" value="정기주차 신청 탈락" style="html=1;verticalAlign=bottom;endArrow=open;dashed=1;endSize=8;edgeStyle=elbowEdgeStyle;elbow=vertical;curved=0;rounded=0;" edge="1" parent="wVa97QRf675WXW742vAO-51">
          <mxGeometry relative="1" as="geometry">
            <mxPoint x="22.5" y="120" as="targetPoint" />
            <Array as="points">
              <mxPoint x="117.5" y="120" />
            </Array>
            <mxPoint x="192.5" y="120" as="sourcePoint" />
            <mxPoint as="offset" />
          </mxGeometry>
        </mxCell>
      </root>
    </mxGraphModel>
  </diagram>
  <diagram id="1VWVyRUf98OeWNogHYiy" name="페이지-2">
    <mxGraphModel dx="1709" dy="904" grid="1" gridSize="10" guides="1" tooltips="1" connect="1" arrows="1" fold="1" page="1" pageScale="1" pageWidth="827" pageHeight="1169" math="0" shadow="0">
      <root>
        <mxCell id="0" />
        <mxCell id="1" parent="0" />
        <mxCell id="OibOBGhe3ffbTewxWgJU-31" value="opt" style="shape=umlFrame;whiteSpace=wrap;html=1;pointerEvents=0;recursiveResize=0;container=1;collapsible=0;width=50;height=30;" vertex="1" parent="1">
          <mxGeometry x="48.75" y="110" width="450" height="260" as="geometry" />
        </mxCell>
        <mxCell id="OibOBGhe3ffbTewxWgJU-33" value="&lt;font color=&quot;#3333ff&quot;&gt;[정기주차 선정]&lt;/font&gt;" style="text;html=1;align=center;verticalAlign=middle;resizable=0;points=[];autosize=1;strokeColor=none;fillColor=none;" vertex="1" parent="OibOBGhe3ffbTewxWgJU-31">
          <mxGeometry x="51.25" width="110" height="30" as="geometry" />
        </mxCell>
        <mxCell id="Y2bbz3RgrQLA88Qp37bl-8" value="서류 파일" style="html=1;verticalAlign=bottom;endArrow=block;edgeStyle=elbowEdgeStyle;elbow=horizontal;curved=0;rounded=0;" edge="1" parent="OibOBGhe3ffbTewxWgJU-31">
          <mxGeometry relative="1" as="geometry">
            <mxPoint x="53.25" y="50" as="sourcePoint" />
            <Array as="points">
              <mxPoint x="138.25" y="50" />
            </Array>
            <mxPoint x="223.75" y="50" as="targetPoint" />
          </mxGeometry>
        </mxCell>
        <mxCell id="Y2bbz3RgrQLA88Qp37bl-1" value="웹브라우저" style="shape=umlLifeline;perimeter=lifelinePerimeter;whiteSpace=wrap;html=1;container=0;dropTarget=0;collapsible=0;recursiveResize=0;outlineConnect=0;portConstraint=eastwest;newEdgeStyle={&quot;edgeStyle&quot;:&quot;elbowEdgeStyle&quot;,&quot;elbow&quot;:&quot;vertical&quot;,&quot;curved&quot;:0,&quot;rounded&quot;:0};" vertex="1" parent="1">
          <mxGeometry x="227.5" y="60" width="100" height="300" as="geometry" />
        </mxCell>
        <mxCell id="Y2bbz3RgrQLA88Qp37bl-2" value="" style="html=1;points=[];perimeter=orthogonalPerimeter;outlineConnect=0;targetShapes=umlLifeline;portConstraint=eastwest;newEdgeStyle={&quot;edgeStyle&quot;:&quot;elbowEdgeStyle&quot;,&quot;elbow&quot;:&quot;vertical&quot;,&quot;curved&quot;:0,&quot;rounded&quot;:0};" vertex="1" parent="Y2bbz3RgrQLA88Qp37bl-1">
          <mxGeometry x="45" y="90" width="10" height="160" as="geometry" />
        </mxCell>
        <mxCell id="Y2bbz3RgrQLA88Qp37bl-3" value="사용자" style="shape=umlActor;verticalLabelPosition=bottom;verticalAlign=top;html=1;" vertex="1" parent="1">
          <mxGeometry x="87.5" y="30" width="25" height="50" as="geometry" />
        </mxCell>
        <mxCell id="Y2bbz3RgrQLA88Qp37bl-4" value="" style="shape=umlLifeline;perimeter=lifelinePerimeter;whiteSpace=wrap;html=1;container=0;dropTarget=0;collapsible=0;recursiveResize=0;outlineConnect=0;portConstraint=eastwest;newEdgeStyle={&quot;edgeStyle&quot;:&quot;elbowEdgeStyle&quot;,&quot;elbow&quot;:&quot;vertical&quot;,&quot;curved&quot;:0,&quot;rounded&quot;:0};size=0;" vertex="1" parent="1">
          <mxGeometry x="50" y="100" width="100" height="260" as="geometry" />
        </mxCell>
        <mxCell id="Y2bbz3RgrQLA88Qp37bl-5" value="" style="html=1;points=[];perimeter=orthogonalPerimeter;outlineConnect=0;targetShapes=umlLifeline;portConstraint=eastwest;newEdgeStyle={&quot;edgeStyle&quot;:&quot;elbowEdgeStyle&quot;,&quot;elbow&quot;:&quot;vertical&quot;,&quot;curved&quot;:0,&quot;rounded&quot;:0};" vertex="1" parent="Y2bbz3RgrQLA88Qp37bl-4">
          <mxGeometry x="45" y="50" width="10" height="170" as="geometry" />
        </mxCell>
        <mxCell id="Y2bbz3RgrQLA88Qp37bl-6" value="서버 API" style="shape=umlLifeline;perimeter=lifelinePerimeter;whiteSpace=wrap;html=1;container=0;dropTarget=0;collapsible=0;recursiveResize=0;outlineConnect=0;portConstraint=eastwest;newEdgeStyle={&quot;edgeStyle&quot;:&quot;elbowEdgeStyle&quot;,&quot;elbow&quot;:&quot;vertical&quot;,&quot;curved&quot;:0,&quot;rounded&quot;:0};" vertex="1" parent="1">
          <mxGeometry x="410" y="60" width="100" height="300" as="geometry" />
        </mxCell>
        <mxCell id="Y2bbz3RgrQLA88Qp37bl-7" value="" style="html=1;points=[];perimeter=orthogonalPerimeter;outlineConnect=0;targetShapes=umlLifeline;portConstraint=eastwest;newEdgeStyle={&quot;edgeStyle&quot;:&quot;elbowEdgeStyle&quot;,&quot;elbow&quot;:&quot;vertical&quot;,&quot;curved&quot;:0,&quot;rounded&quot;:0};" vertex="1" parent="Y2bbz3RgrQLA88Qp37bl-6">
          <mxGeometry x="45" y="100" width="10" height="140" as="geometry" />
        </mxCell>
        <mxCell id="Y2bbz3RgrQLA88Qp37bl-9" value="서류 파일" style="html=1;verticalAlign=bottom;endArrow=block;edgeStyle=elbowEdgeStyle;elbow=vertical;curved=0;rounded=0;" edge="1" parent="1">
          <mxGeometry relative="1" as="geometry">
            <mxPoint x="285" y="165" as="sourcePoint" />
            <Array as="points">
              <mxPoint x="370" y="165" />
            </Array>
            <mxPoint x="455.5" y="165" as="targetPoint" />
          </mxGeometry>
        </mxCell>
        <mxCell id="Y2bbz3RgrQLA88Qp37bl-10" value="" style="shape=umlLifeline;perimeter=lifelinePerimeter;whiteSpace=wrap;html=1;container=0;dropTarget=0;collapsible=0;recursiveResize=0;outlineConnect=0;portConstraint=eastwest;newEdgeStyle={&quot;edgeStyle&quot;:&quot;elbowEdgeStyle&quot;,&quot;elbow&quot;:&quot;vertical&quot;,&quot;curved&quot;:0,&quot;rounded&quot;:0};size=0;" vertex="1" parent="1">
          <mxGeometry x="590" y="100" width="100" height="260" as="geometry" />
        </mxCell>
        <mxCell id="Y2bbz3RgrQLA88Qp37bl-11" value="" style="html=1;points=[];perimeter=orthogonalPerimeter;outlineConnect=0;targetShapes=umlLifeline;portConstraint=eastwest;newEdgeStyle={&quot;edgeStyle&quot;:&quot;elbowEdgeStyle&quot;,&quot;elbow&quot;:&quot;vertical&quot;,&quot;curved&quot;:0,&quot;rounded&quot;:0};" vertex="1" parent="Y2bbz3RgrQLA88Qp37bl-10">
          <mxGeometry x="45" y="70" width="10" height="40" as="geometry" />
        </mxCell>
        <mxCell id="Y2bbz3RgrQLA88Qp37bl-12" value="" style="shape=cylinder3;whiteSpace=wrap;html=1;boundedLbl=1;backgroundOutline=1;size=5.277760823567782;" vertex="1" parent="1">
          <mxGeometry x="652.5" y="60" width="17.5" height="20" as="geometry" />
        </mxCell>
        <mxCell id="Y2bbz3RgrQLA88Qp37bl-13" value="서류 파일" style="html=1;verticalAlign=bottom;endArrow=block;edgeStyle=elbowEdgeStyle;elbow=vertical;curved=0;rounded=0;" edge="1" parent="1">
          <mxGeometry relative="1" as="geometry">
            <mxPoint x="466" y="180" as="sourcePoint" />
            <Array as="points">
              <mxPoint x="551" y="180" />
            </Array>
            <mxPoint x="636.5" y="180" as="targetPoint" />
          </mxGeometry>
        </mxCell>
        <mxCell id="Y2bbz3RgrQLA88Qp37bl-14" value="DB" style="shape=umlActor;verticalLabelPosition=bottom;verticalAlign=top;html=1;" vertex="1" parent="1">
          <mxGeometry x="627.5" y="30" width="25" height="50" as="geometry" />
        </mxCell>
        <mxCell id="Y2bbz3RgrQLA88Qp37bl-15" value="return data" style="html=1;verticalAlign=bottom;endArrow=open;dashed=1;endSize=8;edgeStyle=elbowEdgeStyle;elbow=vertical;curved=0;rounded=0;" edge="1" parent="1">
          <mxGeometry relative="1" as="geometry">
            <mxPoint x="463" y="202" as="targetPoint" />
            <Array as="points">
              <mxPoint x="558" y="202" />
            </Array>
            <mxPoint x="633" y="202" as="sourcePoint" />
          </mxGeometry>
        </mxCell>
        <mxCell id="Y2bbz3RgrQLA88Qp37bl-16" value="alt" style="shape=umlFrame;whiteSpace=wrap;html=1;pointerEvents=0;recursiveResize=0;container=1;collapsible=0;width=50;height=30;" vertex="1" parent="1">
          <mxGeometry x="77.5" y="190" width="392.5" height="160" as="geometry" />
        </mxCell>
        <mxCell id="Y2bbz3RgrQLA88Qp37bl-17" value="정기주차 신청 성공" style="html=1;verticalAlign=bottom;endArrow=open;dashed=1;endSize=8;edgeStyle=elbowEdgeStyle;elbow=vertical;curved=0;rounded=0;" edge="1" parent="Y2bbz3RgrQLA88Qp37bl-16">
          <mxGeometry relative="1" as="geometry">
            <mxPoint x="22.5" y="60" as="targetPoint" />
            <Array as="points">
              <mxPoint x="117.5" y="60" />
            </Array>
            <mxPoint x="192.5" y="60" as="sourcePoint" />
            <mxPoint as="offset" />
          </mxGeometry>
        </mxCell>
        <mxCell id="Y2bbz3RgrQLA88Qp37bl-18" value="&lt;font color=&quot;#3333ff&quot;&gt;[성공]&lt;/font&gt;" style="text;html=1;align=center;verticalAlign=middle;resizable=0;points=[];autosize=1;strokeColor=none;fillColor=none;" vertex="1" parent="Y2bbz3RgrQLA88Qp37bl-16">
          <mxGeometry x="52.5" y="-4" width="50" height="30" as="geometry" />
        </mxCell>
        <mxCell id="Y2bbz3RgrQLA88Qp37bl-19" value="" style="endArrow=none;html=1;rounded=0;entryX=0.999;entryY=0.498;entryDx=0;entryDy=0;entryPerimeter=0;" edge="1" parent="Y2bbz3RgrQLA88Qp37bl-16" target="Y2bbz3RgrQLA88Qp37bl-16">
          <mxGeometry width="50" height="50" relative="1" as="geometry">
            <mxPoint x="2.5" y="79.5" as="sourcePoint" />
            <mxPoint x="382.5" y="80" as="targetPoint" />
          </mxGeometry>
        </mxCell>
        <mxCell id="Y2bbz3RgrQLA88Qp37bl-20" value="&lt;font color=&quot;#3333ff&quot;&gt;[실패]&lt;/font&gt;" style="text;html=1;align=center;verticalAlign=middle;resizable=0;points=[];autosize=1;strokeColor=none;fillColor=none;" vertex="1" parent="Y2bbz3RgrQLA88Qp37bl-16">
          <mxGeometry x="52.5" y="74" width="50" height="30" as="geometry" />
        </mxCell>
        <mxCell id="Y2bbz3RgrQLA88Qp37bl-21" value="reply data&lt;div&gt;(result = 성공)&lt;/div&gt;" style="html=1;verticalAlign=bottom;endArrow=open;dashed=1;endSize=8;edgeStyle=elbowEdgeStyle;elbow=horizontal;curved=0;rounded=0;" edge="1" parent="Y2bbz3RgrQLA88Qp37bl-16">
          <mxGeometry relative="1" as="geometry">
            <mxPoint x="205.5" y="30" as="targetPoint" />
            <Array as="points">
              <mxPoint x="300.5" y="30" />
            </Array>
            <mxPoint x="375.5" y="30" as="sourcePoint" />
            <mxPoint as="offset" />
          </mxGeometry>
        </mxCell>
        <mxCell id="Y2bbz3RgrQLA88Qp37bl-22" value="reply data&lt;div&gt;(result = 실패)&lt;/div&gt;" style="html=1;verticalAlign=bottom;endArrow=open;dashed=1;endSize=8;edgeStyle=elbowEdgeStyle;elbow=horizontal;curved=0;rounded=0;" edge="1" parent="Y2bbz3RgrQLA88Qp37bl-16">
          <mxGeometry relative="1" as="geometry">
            <mxPoint x="212.5" y="110" as="targetPoint" />
            <Array as="points">
              <mxPoint x="307.5" y="110" />
            </Array>
            <mxPoint x="382.5" y="110" as="sourcePoint" />
            <mxPoint as="offset" />
          </mxGeometry>
        </mxCell>
        <mxCell id="Y2bbz3RgrQLA88Qp37bl-23" value="정기주차 신청 실패" style="html=1;verticalAlign=bottom;endArrow=open;dashed=1;endSize=8;edgeStyle=elbowEdgeStyle;elbow=vertical;curved=0;rounded=0;" edge="1" parent="Y2bbz3RgrQLA88Qp37bl-16">
          <mxGeometry relative="1" as="geometry">
            <mxPoint x="22.5" y="120" as="targetPoint" />
            <Array as="points">
              <mxPoint x="117.5" y="120" />
            </Array>
            <mxPoint x="192.5" y="120" as="sourcePoint" />
            <mxPoint as="offset" />
          </mxGeometry>
        </mxCell>
        <mxCell id="ccO-zQmtAjLfuiNAkUhr-1" value="opt" style="shape=umlFrame;whiteSpace=wrap;html=1;pointerEvents=0;recursiveResize=0;container=1;collapsible=0;width=50;height=30;" vertex="1" parent="1">
          <mxGeometry x="40" y="520" width="450" height="260" as="geometry" />
        </mxCell>
        <mxCell id="ccO-zQmtAjLfuiNAkUhr-2" value="&lt;font color=&quot;#3333ff&quot;&gt;[정기주차 선정]&lt;/font&gt;" style="text;html=1;align=center;verticalAlign=middle;resizable=0;points=[];autosize=1;strokeColor=none;fillColor=none;" vertex="1" parent="ccO-zQmtAjLfuiNAkUhr-1">
          <mxGeometry x="51.25" width="110" height="30" as="geometry" />
        </mxCell>
        <mxCell id="ccO-zQmtAjLfuiNAkUhr-3" value="서류 파일 요청" style="html=1;verticalAlign=bottom;endArrow=block;edgeStyle=elbowEdgeStyle;elbow=horizontal;curved=0;rounded=0;" edge="1" parent="ccO-zQmtAjLfuiNAkUhr-1">
          <mxGeometry relative="1" as="geometry">
            <mxPoint x="53.25" y="50" as="sourcePoint" />
            <Array as="points">
              <mxPoint x="138.25" y="50" />
            </Array>
            <mxPoint x="223.75" y="50" as="targetPoint" />
          </mxGeometry>
        </mxCell>
        <mxCell id="ccO-zQmtAjLfuiNAkUhr-4" value="웹브라우저" style="shape=umlLifeline;perimeter=lifelinePerimeter;whiteSpace=wrap;html=1;container=0;dropTarget=0;collapsible=0;recursiveResize=0;outlineConnect=0;portConstraint=eastwest;newEdgeStyle={&quot;edgeStyle&quot;:&quot;elbowEdgeStyle&quot;,&quot;elbow&quot;:&quot;vertical&quot;,&quot;curved&quot;:0,&quot;rounded&quot;:0};" vertex="1" parent="1">
          <mxGeometry x="218.75" y="470" width="100" height="300" as="geometry" />
        </mxCell>
        <mxCell id="ccO-zQmtAjLfuiNAkUhr-5" value="" style="html=1;points=[];perimeter=orthogonalPerimeter;outlineConnect=0;targetShapes=umlLifeline;portConstraint=eastwest;newEdgeStyle={&quot;edgeStyle&quot;:&quot;elbowEdgeStyle&quot;,&quot;elbow&quot;:&quot;vertical&quot;,&quot;curved&quot;:0,&quot;rounded&quot;:0};" vertex="1" parent="ccO-zQmtAjLfuiNAkUhr-4">
          <mxGeometry x="45" y="90" width="10" height="170" as="geometry" />
        </mxCell>
        <mxCell id="ccO-zQmtAjLfuiNAkUhr-6" value="사용자" style="shape=umlActor;verticalLabelPosition=bottom;verticalAlign=top;html=1;" vertex="1" parent="1">
          <mxGeometry x="78.75" y="440" width="25" height="50" as="geometry" />
        </mxCell>
        <mxCell id="ccO-zQmtAjLfuiNAkUhr-7" value="" style="shape=umlLifeline;perimeter=lifelinePerimeter;whiteSpace=wrap;html=1;container=0;dropTarget=0;collapsible=0;recursiveResize=0;outlineConnect=0;portConstraint=eastwest;newEdgeStyle={&quot;edgeStyle&quot;:&quot;elbowEdgeStyle&quot;,&quot;elbow&quot;:&quot;vertical&quot;,&quot;curved&quot;:0,&quot;rounded&quot;:0};size=0;" vertex="1" parent="1">
          <mxGeometry x="41.25" y="510" width="100" height="260" as="geometry" />
        </mxCell>
        <mxCell id="ccO-zQmtAjLfuiNAkUhr-8" value="" style="html=1;points=[];perimeter=orthogonalPerimeter;outlineConnect=0;targetShapes=umlLifeline;portConstraint=eastwest;newEdgeStyle={&quot;edgeStyle&quot;:&quot;elbowEdgeStyle&quot;,&quot;elbow&quot;:&quot;vertical&quot;,&quot;curved&quot;:0,&quot;rounded&quot;:0};" vertex="1" parent="ccO-zQmtAjLfuiNAkUhr-7">
          <mxGeometry x="45" y="50" width="10" height="170" as="geometry" />
        </mxCell>
        <mxCell id="ccO-zQmtAjLfuiNAkUhr-9" value="서버 API" style="shape=umlLifeline;perimeter=lifelinePerimeter;whiteSpace=wrap;html=1;container=0;dropTarget=0;collapsible=0;recursiveResize=0;outlineConnect=0;portConstraint=eastwest;newEdgeStyle={&quot;edgeStyle&quot;:&quot;elbowEdgeStyle&quot;,&quot;elbow&quot;:&quot;vertical&quot;,&quot;curved&quot;:0,&quot;rounded&quot;:0};" vertex="1" parent="1">
          <mxGeometry x="401.25" y="470" width="100" height="300" as="geometry" />
        </mxCell>
        <mxCell id="ccO-zQmtAjLfuiNAkUhr-10" value="" style="html=1;points=[];perimeter=orthogonalPerimeter;outlineConnect=0;targetShapes=umlLifeline;portConstraint=eastwest;newEdgeStyle={&quot;edgeStyle&quot;:&quot;elbowEdgeStyle&quot;,&quot;elbow&quot;:&quot;vertical&quot;,&quot;curved&quot;:0,&quot;rounded&quot;:0};" vertex="1" parent="ccO-zQmtAjLfuiNAkUhr-9">
          <mxGeometry x="45" y="100" width="10" height="140" as="geometry" />
        </mxCell>
        <mxCell id="ccO-zQmtAjLfuiNAkUhr-11" value="서류 파일 요청" style="html=1;verticalAlign=bottom;endArrow=block;edgeStyle=elbowEdgeStyle;elbow=vertical;curved=0;rounded=0;" edge="1" parent="1">
          <mxGeometry relative="1" as="geometry">
            <mxPoint x="276.25" y="575" as="sourcePoint" />
            <Array as="points">
              <mxPoint x="361.25" y="575" />
            </Array>
            <mxPoint x="446.75" y="575" as="targetPoint" />
          </mxGeometry>
        </mxCell>
        <mxCell id="ccO-zQmtAjLfuiNAkUhr-12" value="" style="shape=umlLifeline;perimeter=lifelinePerimeter;whiteSpace=wrap;html=1;container=0;dropTarget=0;collapsible=0;recursiveResize=0;outlineConnect=0;portConstraint=eastwest;newEdgeStyle={&quot;edgeStyle&quot;:&quot;elbowEdgeStyle&quot;,&quot;elbow&quot;:&quot;vertical&quot;,&quot;curved&quot;:0,&quot;rounded&quot;:0};size=0;" vertex="1" parent="1">
          <mxGeometry x="581.25" y="510" width="100" height="260" as="geometry" />
        </mxCell>
        <mxCell id="ccO-zQmtAjLfuiNAkUhr-13" value="" style="html=1;points=[];perimeter=orthogonalPerimeter;outlineConnect=0;targetShapes=umlLifeline;portConstraint=eastwest;newEdgeStyle={&quot;edgeStyle&quot;:&quot;elbowEdgeStyle&quot;,&quot;elbow&quot;:&quot;vertical&quot;,&quot;curved&quot;:0,&quot;rounded&quot;:0};" vertex="1" parent="ccO-zQmtAjLfuiNAkUhr-12">
          <mxGeometry x="45" y="70" width="10" height="40" as="geometry" />
        </mxCell>
        <mxCell id="ccO-zQmtAjLfuiNAkUhr-14" value="" style="shape=cylinder3;whiteSpace=wrap;html=1;boundedLbl=1;backgroundOutline=1;size=5.277760823567782;" vertex="1" parent="1">
          <mxGeometry x="643.75" y="470" width="17.5" height="20" as="geometry" />
        </mxCell>
        <mxCell id="ccO-zQmtAjLfuiNAkUhr-15" value="DB API" style="html=1;verticalAlign=bottom;endArrow=block;edgeStyle=elbowEdgeStyle;elbow=vertical;curved=0;rounded=0;" edge="1" parent="1">
          <mxGeometry relative="1" as="geometry">
            <mxPoint x="457.25" y="590" as="sourcePoint" />
            <Array as="points">
              <mxPoint x="542.25" y="590" />
            </Array>
            <mxPoint x="627.75" y="590" as="targetPoint" />
          </mxGeometry>
        </mxCell>
        <mxCell id="ccO-zQmtAjLfuiNAkUhr-16" value="DB" style="shape=umlActor;verticalLabelPosition=bottom;verticalAlign=top;html=1;" vertex="1" parent="1">
          <mxGeometry x="618.75" y="440" width="25" height="50" as="geometry" />
        </mxCell>
        <mxCell id="ccO-zQmtAjLfuiNAkUhr-17" value="return data" style="html=1;verticalAlign=bottom;endArrow=open;dashed=1;endSize=8;edgeStyle=elbowEdgeStyle;elbow=vertical;curved=0;rounded=0;" edge="1" parent="1">
          <mxGeometry relative="1" as="geometry">
            <mxPoint x="454.25" y="612" as="targetPoint" />
            <Array as="points">
              <mxPoint x="549.25" y="612" />
            </Array>
            <mxPoint x="624.25" y="612" as="sourcePoint" />
          </mxGeometry>
        </mxCell>
        <mxCell id="ccO-zQmtAjLfuiNAkUhr-18" value="alt" style="shape=umlFrame;whiteSpace=wrap;html=1;pointerEvents=0;recursiveResize=0;container=1;collapsible=0;width=50;height=30;" vertex="1" parent="1">
          <mxGeometry x="68.75" y="600" width="392.5" height="160" as="geometry" />
        </mxCell>
        <mxCell id="ccO-zQmtAjLfuiNAkUhr-19" value="서류 파일" style="html=1;verticalAlign=bottom;endArrow=open;dashed=1;endSize=8;edgeStyle=elbowEdgeStyle;elbow=vertical;curved=0;rounded=0;" edge="1" parent="ccO-zQmtAjLfuiNAkUhr-18">
          <mxGeometry relative="1" as="geometry">
            <mxPoint x="22.5" y="60" as="targetPoint" />
            <Array as="points">
              <mxPoint x="117.5" y="60" />
            </Array>
            <mxPoint x="192.5" y="60" as="sourcePoint" />
            <mxPoint as="offset" />
          </mxGeometry>
        </mxCell>
        <mxCell id="ccO-zQmtAjLfuiNAkUhr-20" value="&lt;font color=&quot;#3333ff&quot;&gt;[파일 존재]&lt;/font&gt;" style="text;html=1;align=center;verticalAlign=middle;resizable=0;points=[];autosize=1;strokeColor=none;fillColor=none;" vertex="1" parent="ccO-zQmtAjLfuiNAkUhr-18">
          <mxGeometry x="42.5" y="-3" width="80" height="30" as="geometry" />
        </mxCell>
        <mxCell id="ccO-zQmtAjLfuiNAkUhr-21" value="" style="endArrow=none;html=1;rounded=0;entryX=0.999;entryY=0.498;entryDx=0;entryDy=0;entryPerimeter=0;" edge="1" parent="ccO-zQmtAjLfuiNAkUhr-18" target="ccO-zQmtAjLfuiNAkUhr-18">
          <mxGeometry width="50" height="50" relative="1" as="geometry">
            <mxPoint x="2.5" y="79.5" as="sourcePoint" />
            <mxPoint x="382.5" y="80" as="targetPoint" />
          </mxGeometry>
        </mxCell>
        <mxCell id="ccO-zQmtAjLfuiNAkUhr-22" value="&lt;font color=&quot;#3333ff&quot;&gt;[파일 존재하지 않음]&lt;/font&gt;" style="text;html=1;align=center;verticalAlign=middle;resizable=0;points=[];autosize=1;strokeColor=none;fillColor=none;" vertex="1" parent="ccO-zQmtAjLfuiNAkUhr-18">
          <mxGeometry x="21.25" y="74" width="130" height="30" as="geometry" />
        </mxCell>
        <mxCell id="ccO-zQmtAjLfuiNAkUhr-23" value="reply data&lt;div&gt;(result = 성공)&lt;/div&gt;" style="html=1;verticalAlign=bottom;endArrow=open;dashed=1;endSize=8;edgeStyle=elbowEdgeStyle;elbow=horizontal;curved=0;rounded=0;" edge="1" parent="ccO-zQmtAjLfuiNAkUhr-18">
          <mxGeometry relative="1" as="geometry">
            <mxPoint x="205.5" y="30" as="targetPoint" />
            <Array as="points">
              <mxPoint x="300.5" y="30" />
            </Array>
            <mxPoint x="375.5" y="30" as="sourcePoint" />
            <mxPoint as="offset" />
          </mxGeometry>
        </mxCell>
        <mxCell id="ccO-zQmtAjLfuiNAkUhr-24" value="reply data&lt;div&gt;(result = 실패)&lt;/div&gt;" style="html=1;verticalAlign=bottom;endArrow=open;dashed=1;endSize=8;edgeStyle=elbowEdgeStyle;elbow=horizontal;curved=0;rounded=0;" edge="1" parent="ccO-zQmtAjLfuiNAkUhr-18">
          <mxGeometry relative="1" as="geometry">
            <mxPoint x="212.5" y="110" as="targetPoint" />
            <Array as="points">
              <mxPoint x="307.5" y="110" />
            </Array>
            <mxPoint x="382.5" y="110" as="sourcePoint" />
            <mxPoint as="offset" />
          </mxGeometry>
        </mxCell>
        <mxCell id="ccO-zQmtAjLfuiNAkUhr-25" value="실패&lt;div&gt;(서류 존재하지 않음)&lt;/div&gt;" style="html=1;verticalAlign=bottom;endArrow=open;dashed=1;endSize=8;edgeStyle=elbowEdgeStyle;elbow=horizontal;curved=0;rounded=0;" edge="1" parent="ccO-zQmtAjLfuiNAkUhr-18">
          <mxGeometry relative="1" as="geometry">
            <mxPoint x="22.5" y="127" as="targetPoint" />
            <Array as="points">
              <mxPoint x="117.5" y="127" />
            </Array>
            <mxPoint x="192.5" y="127" as="sourcePoint" />
            <mxPoint as="offset" />
          </mxGeometry>
        </mxCell>
      </root>
    </mxGraphModel>
  </diagram>
  <diagram id="CkX7IKVeA8xktEJk1OTl" name="페이지-3">
    <mxGraphModel dx="842" dy="894" grid="1" gridSize="10" guides="1" tooltips="1" connect="1" arrows="1" fold="1" page="1" pageScale="1" pageWidth="827" pageHeight="1169" math="0" shadow="0">
      <root>
        <mxCell id="0" />
        <mxCell id="1" parent="0" />
        <mxCell id="H3meOQHRYDxDSCgQVIrz-1" value="opt" style="shape=umlFrame;whiteSpace=wrap;html=1;pointerEvents=0;recursiveResize=0;container=1;collapsible=0;width=50;height=30;" vertex="1" parent="1">
          <mxGeometry x="40" y="100" width="450" height="260" as="geometry" />
        </mxCell>
        <mxCell id="H3meOQHRYDxDSCgQVIrz-2" value="&lt;font color=&quot;#3333ff&quot;&gt;[정기주차 탈락]&lt;/font&gt;" style="text;html=1;align=center;verticalAlign=middle;resizable=0;points=[];autosize=1;strokeColor=none;fillColor=none;" vertex="1" parent="H3meOQHRYDxDSCgQVIrz-1">
          <mxGeometry x="51.25" width="110" height="30" as="geometry" />
        </mxCell>
        <mxCell id="H3meOQHRYDxDSCgQVIrz-3" value="대기 신청" style="html=1;verticalAlign=bottom;endArrow=block;edgeStyle=elbowEdgeStyle;elbow=horizontal;curved=0;rounded=0;" edge="1" parent="H3meOQHRYDxDSCgQVIrz-1">
          <mxGeometry relative="1" as="geometry">
            <mxPoint x="53.25" y="50" as="sourcePoint" />
            <Array as="points">
              <mxPoint x="138.25" y="50" />
            </Array>
            <mxPoint x="223.75" y="50" as="targetPoint" />
          </mxGeometry>
        </mxCell>
        <mxCell id="H3meOQHRYDxDSCgQVIrz-4" value="웹브라우저" style="shape=umlLifeline;perimeter=lifelinePerimeter;whiteSpace=wrap;html=1;container=0;dropTarget=0;collapsible=0;recursiveResize=0;outlineConnect=0;portConstraint=eastwest;newEdgeStyle={&quot;edgeStyle&quot;:&quot;elbowEdgeStyle&quot;,&quot;elbow&quot;:&quot;vertical&quot;,&quot;curved&quot;:0,&quot;rounded&quot;:0};" vertex="1" parent="1">
          <mxGeometry x="218.75" y="50" width="100" height="300" as="geometry" />
        </mxCell>
        <mxCell id="H3meOQHRYDxDSCgQVIrz-5" value="" style="html=1;points=[];perimeter=orthogonalPerimeter;outlineConnect=0;targetShapes=umlLifeline;portConstraint=eastwest;newEdgeStyle={&quot;edgeStyle&quot;:&quot;elbowEdgeStyle&quot;,&quot;elbow&quot;:&quot;vertical&quot;,&quot;curved&quot;:0,&quot;rounded&quot;:0};" vertex="1" parent="H3meOQHRYDxDSCgQVIrz-4">
          <mxGeometry x="45" y="90" width="10" height="170" as="geometry" />
        </mxCell>
        <mxCell id="H3meOQHRYDxDSCgQVIrz-6" value="사용자" style="shape=umlActor;verticalLabelPosition=bottom;verticalAlign=top;html=1;" vertex="1" parent="1">
          <mxGeometry x="78.75" y="20" width="25" height="50" as="geometry" />
        </mxCell>
        <mxCell id="H3meOQHRYDxDSCgQVIrz-7" value="" style="shape=umlLifeline;perimeter=lifelinePerimeter;whiteSpace=wrap;html=1;container=0;dropTarget=0;collapsible=0;recursiveResize=0;outlineConnect=0;portConstraint=eastwest;newEdgeStyle={&quot;edgeStyle&quot;:&quot;elbowEdgeStyle&quot;,&quot;elbow&quot;:&quot;vertical&quot;,&quot;curved&quot;:0,&quot;rounded&quot;:0};size=0;" vertex="1" parent="1">
          <mxGeometry x="41.25" y="90" width="100" height="260" as="geometry" />
        </mxCell>
        <mxCell id="H3meOQHRYDxDSCgQVIrz-8" value="" style="html=1;points=[];perimeter=orthogonalPerimeter;outlineConnect=0;targetShapes=umlLifeline;portConstraint=eastwest;newEdgeStyle={&quot;edgeStyle&quot;:&quot;elbowEdgeStyle&quot;,&quot;elbow&quot;:&quot;vertical&quot;,&quot;curved&quot;:0,&quot;rounded&quot;:0};" vertex="1" parent="H3meOQHRYDxDSCgQVIrz-7">
          <mxGeometry x="45" y="50" width="10" height="170" as="geometry" />
        </mxCell>
        <mxCell id="H3meOQHRYDxDSCgQVIrz-9" value="서버 API" style="shape=umlLifeline;perimeter=lifelinePerimeter;whiteSpace=wrap;html=1;container=0;dropTarget=0;collapsible=0;recursiveResize=0;outlineConnect=0;portConstraint=eastwest;newEdgeStyle={&quot;edgeStyle&quot;:&quot;elbowEdgeStyle&quot;,&quot;elbow&quot;:&quot;vertical&quot;,&quot;curved&quot;:0,&quot;rounded&quot;:0};" vertex="1" parent="1">
          <mxGeometry x="401.25" y="50" width="100" height="300" as="geometry" />
        </mxCell>
        <mxCell id="H3meOQHRYDxDSCgQVIrz-10" value="" style="html=1;points=[];perimeter=orthogonalPerimeter;outlineConnect=0;targetShapes=umlLifeline;portConstraint=eastwest;newEdgeStyle={&quot;edgeStyle&quot;:&quot;elbowEdgeStyle&quot;,&quot;elbow&quot;:&quot;vertical&quot;,&quot;curved&quot;:0,&quot;rounded&quot;:0};" vertex="1" parent="H3meOQHRYDxDSCgQVIrz-9">
          <mxGeometry x="45" y="100" width="10" height="140" as="geometry" />
        </mxCell>
        <mxCell id="H3meOQHRYDxDSCgQVIrz-11" value="대기 신청" style="html=1;verticalAlign=bottom;endArrow=block;edgeStyle=elbowEdgeStyle;elbow=horizontal;curved=0;rounded=0;" edge="1" parent="1">
          <mxGeometry relative="1" as="geometry">
            <mxPoint x="276.25" y="155" as="sourcePoint" />
            <Array as="points">
              <mxPoint x="361.25" y="155" />
            </Array>
            <mxPoint x="446.75" y="155" as="targetPoint" />
          </mxGeometry>
        </mxCell>
        <mxCell id="H3meOQHRYDxDSCgQVIrz-12" value="" style="shape=umlLifeline;perimeter=lifelinePerimeter;whiteSpace=wrap;html=1;container=0;dropTarget=0;collapsible=0;recursiveResize=0;outlineConnect=0;portConstraint=eastwest;newEdgeStyle={&quot;edgeStyle&quot;:&quot;elbowEdgeStyle&quot;,&quot;elbow&quot;:&quot;vertical&quot;,&quot;curved&quot;:0,&quot;rounded&quot;:0};size=0;" vertex="1" parent="1">
          <mxGeometry x="581.25" y="90" width="100" height="260" as="geometry" />
        </mxCell>
        <mxCell id="H3meOQHRYDxDSCgQVIrz-13" value="" style="html=1;points=[];perimeter=orthogonalPerimeter;outlineConnect=0;targetShapes=umlLifeline;portConstraint=eastwest;newEdgeStyle={&quot;edgeStyle&quot;:&quot;elbowEdgeStyle&quot;,&quot;elbow&quot;:&quot;vertical&quot;,&quot;curved&quot;:0,&quot;rounded&quot;:0};" vertex="1" parent="H3meOQHRYDxDSCgQVIrz-12">
          <mxGeometry x="45" y="70" width="10" height="40" as="geometry" />
        </mxCell>
        <mxCell id="H3meOQHRYDxDSCgQVIrz-14" value="" style="shape=cylinder3;whiteSpace=wrap;html=1;boundedLbl=1;backgroundOutline=1;size=5.277760823567782;" vertex="1" parent="1">
          <mxGeometry x="643.75" y="50" width="17.5" height="20" as="geometry" />
        </mxCell>
        <mxCell id="H3meOQHRYDxDSCgQVIrz-15" value="대기 신청" style="html=1;verticalAlign=bottom;endArrow=block;edgeStyle=elbowEdgeStyle;elbow=vertical;curved=0;rounded=0;" edge="1" parent="1">
          <mxGeometry relative="1" as="geometry">
            <mxPoint x="457.25" y="170" as="sourcePoint" />
            <Array as="points">
              <mxPoint x="542.25" y="170" />
            </Array>
            <mxPoint x="627.75" y="170" as="targetPoint" />
          </mxGeometry>
        </mxCell>
        <mxCell id="H3meOQHRYDxDSCgQVIrz-16" value="DB" style="shape=umlActor;verticalLabelPosition=bottom;verticalAlign=top;html=1;" vertex="1" parent="1">
          <mxGeometry x="618.75" y="20" width="25" height="50" as="geometry" />
        </mxCell>
        <mxCell id="H3meOQHRYDxDSCgQVIrz-17" value="return data" style="html=1;verticalAlign=bottom;endArrow=open;dashed=1;endSize=8;edgeStyle=elbowEdgeStyle;elbow=vertical;curved=0;rounded=0;" edge="1" parent="1">
          <mxGeometry relative="1" as="geometry">
            <mxPoint x="454.25" y="192" as="targetPoint" />
            <Array as="points">
              <mxPoint x="549.25" y="192" />
            </Array>
            <mxPoint x="624.25" y="192" as="sourcePoint" />
          </mxGeometry>
        </mxCell>
        <mxCell id="H3meOQHRYDxDSCgQVIrz-18" value="alt" style="shape=umlFrame;whiteSpace=wrap;html=1;pointerEvents=0;recursiveResize=0;container=1;collapsible=0;width=50;height=30;" vertex="1" parent="1">
          <mxGeometry x="68.75" y="180" width="392.5" height="160" as="geometry" />
        </mxCell>
        <mxCell id="H3meOQHRYDxDSCgQVIrz-19" value="대기 번호" style="html=1;verticalAlign=bottom;endArrow=open;dashed=1;endSize=8;edgeStyle=elbowEdgeStyle;elbow=vertical;curved=0;rounded=0;" edge="1" parent="H3meOQHRYDxDSCgQVIrz-18">
          <mxGeometry relative="1" as="geometry">
            <mxPoint x="22.5" y="60" as="targetPoint" />
            <Array as="points">
              <mxPoint x="117.5" y="60" />
            </Array>
            <mxPoint x="192.5" y="60" as="sourcePoint" />
            <mxPoint as="offset" />
          </mxGeometry>
        </mxCell>
        <mxCell id="H3meOQHRYDxDSCgQVIrz-20" value="&lt;font color=&quot;#3333ff&quot;&gt;[성공]&lt;/font&gt;" style="text;html=1;align=center;verticalAlign=middle;resizable=0;points=[];autosize=1;strokeColor=none;fillColor=none;" vertex="1" parent="H3meOQHRYDxDSCgQVIrz-18">
          <mxGeometry x="57.5" y="-6" width="50" height="30" as="geometry" />
        </mxCell>
        <mxCell id="H3meOQHRYDxDSCgQVIrz-21" value="" style="endArrow=none;html=1;rounded=0;entryX=0.999;entryY=0.498;entryDx=0;entryDy=0;entryPerimeter=0;" edge="1" parent="H3meOQHRYDxDSCgQVIrz-18" target="H3meOQHRYDxDSCgQVIrz-18">
          <mxGeometry width="50" height="50" relative="1" as="geometry">
            <mxPoint x="2.5" y="79.5" as="sourcePoint" />
            <mxPoint x="382.5" y="80" as="targetPoint" />
          </mxGeometry>
        </mxCell>
        <mxCell id="H3meOQHRYDxDSCgQVIrz-22" value="&lt;font color=&quot;#3333ff&quot;&gt;[실패]&lt;/font&gt;" style="text;html=1;align=center;verticalAlign=middle;resizable=0;points=[];autosize=1;strokeColor=none;fillColor=none;" vertex="1" parent="H3meOQHRYDxDSCgQVIrz-18">
          <mxGeometry x="59.25" y="73" width="50" height="30" as="geometry" />
        </mxCell>
        <mxCell id="H3meOQHRYDxDSCgQVIrz-23" value="reply data&lt;div&gt;(result = 성공)&lt;/div&gt;" style="html=1;verticalAlign=bottom;endArrow=open;dashed=1;endSize=8;edgeStyle=elbowEdgeStyle;elbow=horizontal;curved=0;rounded=0;" edge="1" parent="H3meOQHRYDxDSCgQVIrz-18">
          <mxGeometry relative="1" as="geometry">
            <mxPoint x="205.5" y="30" as="targetPoint" />
            <Array as="points">
              <mxPoint x="300.5" y="30" />
            </Array>
            <mxPoint x="375.5" y="30" as="sourcePoint" />
            <mxPoint as="offset" />
          </mxGeometry>
        </mxCell>
        <mxCell id="H3meOQHRYDxDSCgQVIrz-24" value="reply data&lt;div&gt;(result = 실패)&lt;/div&gt;" style="html=1;verticalAlign=bottom;endArrow=open;dashed=1;endSize=8;edgeStyle=elbowEdgeStyle;elbow=horizontal;curved=0;rounded=0;" edge="1" parent="H3meOQHRYDxDSCgQVIrz-18">
          <mxGeometry relative="1" as="geometry">
            <mxPoint x="212.5" y="110" as="targetPoint" />
            <Array as="points">
              <mxPoint x="307.5" y="110" />
            </Array>
            <mxPoint x="382.5" y="110" as="sourcePoint" />
            <mxPoint as="offset" />
          </mxGeometry>
        </mxCell>
        <mxCell id="H3meOQHRYDxDSCgQVIrz-25" value="대기 신청 실패" style="html=1;verticalAlign=bottom;endArrow=open;dashed=1;endSize=8;edgeStyle=elbowEdgeStyle;elbow=horizontal;curved=0;rounded=0;" edge="1" parent="H3meOQHRYDxDSCgQVIrz-18">
          <mxGeometry relative="1" as="geometry">
            <mxPoint x="22.5" y="127" as="targetPoint" />
            <Array as="points">
              <mxPoint x="117.5" y="127" />
            </Array>
            <mxPoint x="192.5" y="127" as="sourcePoint" />
            <mxPoint as="offset" />
          </mxGeometry>
        </mxCell>
        <mxCell id="j5VOxmZojk0O5T2Iahud-1" value="opt" style="shape=umlFrame;whiteSpace=wrap;html=1;pointerEvents=0;recursiveResize=0;container=1;collapsible=0;width=50;height=30;" vertex="1" parent="1">
          <mxGeometry x="41.25" y="510" width="450" height="260" as="geometry" />
        </mxCell>
        <mxCell id="j5VOxmZojk0O5T2Iahud-2" value="&lt;font color=&quot;#3333ff&quot;&gt;[정기주차 선정]&lt;/font&gt;" style="text;html=1;align=center;verticalAlign=middle;resizable=0;points=[];autosize=1;strokeColor=none;fillColor=none;" vertex="1" parent="j5VOxmZojk0O5T2Iahud-1">
          <mxGeometry x="51.25" width="110" height="30" as="geometry" />
        </mxCell>
        <mxCell id="j5VOxmZojk0O5T2Iahud-3" value="결제 요청" style="html=1;verticalAlign=bottom;endArrow=block;edgeStyle=elbowEdgeStyle;elbow=horizontal;curved=0;rounded=0;" edge="1" parent="j5VOxmZojk0O5T2Iahud-1">
          <mxGeometry relative="1" as="geometry">
            <mxPoint x="53.25" y="50" as="sourcePoint" />
            <Array as="points">
              <mxPoint x="138.25" y="50" />
            </Array>
            <mxPoint x="223.75" y="50" as="targetPoint" />
          </mxGeometry>
        </mxCell>
        <mxCell id="j5VOxmZojk0O5T2Iahud-4" value="웹브라우저" style="shape=umlLifeline;perimeter=lifelinePerimeter;whiteSpace=wrap;html=1;container=0;dropTarget=0;collapsible=0;recursiveResize=0;outlineConnect=0;portConstraint=eastwest;newEdgeStyle={&quot;edgeStyle&quot;:&quot;elbowEdgeStyle&quot;,&quot;elbow&quot;:&quot;vertical&quot;,&quot;curved&quot;:0,&quot;rounded&quot;:0};" vertex="1" parent="1">
          <mxGeometry x="220" y="460" width="100" height="300" as="geometry" />
        </mxCell>
        <mxCell id="j5VOxmZojk0O5T2Iahud-5" value="" style="html=1;points=[];perimeter=orthogonalPerimeter;outlineConnect=0;targetShapes=umlLifeline;portConstraint=eastwest;newEdgeStyle={&quot;edgeStyle&quot;:&quot;elbowEdgeStyle&quot;,&quot;elbow&quot;:&quot;vertical&quot;,&quot;curved&quot;:0,&quot;rounded&quot;:0};" vertex="1" parent="j5VOxmZojk0O5T2Iahud-4">
          <mxGeometry x="45" y="90" width="10" height="170" as="geometry" />
        </mxCell>
        <mxCell id="j5VOxmZojk0O5T2Iahud-6" value="사용자" style="shape=umlActor;verticalLabelPosition=bottom;verticalAlign=top;html=1;" vertex="1" parent="1">
          <mxGeometry x="80" y="430" width="25" height="50" as="geometry" />
        </mxCell>
        <mxCell id="j5VOxmZojk0O5T2Iahud-7" value="" style="shape=umlLifeline;perimeter=lifelinePerimeter;whiteSpace=wrap;html=1;container=0;dropTarget=0;collapsible=0;recursiveResize=0;outlineConnect=0;portConstraint=eastwest;newEdgeStyle={&quot;edgeStyle&quot;:&quot;elbowEdgeStyle&quot;,&quot;elbow&quot;:&quot;vertical&quot;,&quot;curved&quot;:0,&quot;rounded&quot;:0};size=0;" vertex="1" parent="1">
          <mxGeometry x="42.5" y="500" width="100" height="260" as="geometry" />
        </mxCell>
        <mxCell id="j5VOxmZojk0O5T2Iahud-8" value="" style="html=1;points=[];perimeter=orthogonalPerimeter;outlineConnect=0;targetShapes=umlLifeline;portConstraint=eastwest;newEdgeStyle={&quot;edgeStyle&quot;:&quot;elbowEdgeStyle&quot;,&quot;elbow&quot;:&quot;vertical&quot;,&quot;curved&quot;:0,&quot;rounded&quot;:0};" vertex="1" parent="j5VOxmZojk0O5T2Iahud-7">
          <mxGeometry x="45" y="50" width="10" height="170" as="geometry" />
        </mxCell>
        <mxCell id="j5VOxmZojk0O5T2Iahud-9" value="서버 API" style="shape=umlLifeline;perimeter=lifelinePerimeter;whiteSpace=wrap;html=1;container=0;dropTarget=0;collapsible=0;recursiveResize=0;outlineConnect=0;portConstraint=eastwest;newEdgeStyle={&quot;edgeStyle&quot;:&quot;elbowEdgeStyle&quot;,&quot;elbow&quot;:&quot;vertical&quot;,&quot;curved&quot;:0,&quot;rounded&quot;:0};" vertex="1" parent="1">
          <mxGeometry x="402.5" y="460" width="100" height="300" as="geometry" />
        </mxCell>
        <mxCell id="j5VOxmZojk0O5T2Iahud-10" value="" style="html=1;points=[];perimeter=orthogonalPerimeter;outlineConnect=0;targetShapes=umlLifeline;portConstraint=eastwest;newEdgeStyle={&quot;edgeStyle&quot;:&quot;elbowEdgeStyle&quot;,&quot;elbow&quot;:&quot;vertical&quot;,&quot;curved&quot;:0,&quot;rounded&quot;:0};" vertex="1" parent="j5VOxmZojk0O5T2Iahud-9">
          <mxGeometry x="45" y="100" width="10" height="140" as="geometry" />
        </mxCell>
        <mxCell id="j5VOxmZojk0O5T2Iahud-11" value="결제 요청" style="html=1;verticalAlign=bottom;endArrow=block;edgeStyle=elbowEdgeStyle;elbow=horizontal;curved=0;rounded=0;" edge="1" parent="1">
          <mxGeometry relative="1" as="geometry">
            <mxPoint x="277.5" y="565" as="sourcePoint" />
            <Array as="points">
              <mxPoint x="362.5" y="565" />
            </Array>
            <mxPoint x="448" y="565" as="targetPoint" />
          </mxGeometry>
        </mxCell>
        <mxCell id="j5VOxmZojk0O5T2Iahud-12" value="" style="shape=umlLifeline;perimeter=lifelinePerimeter;whiteSpace=wrap;html=1;container=0;dropTarget=0;collapsible=0;recursiveResize=0;outlineConnect=0;portConstraint=eastwest;newEdgeStyle={&quot;edgeStyle&quot;:&quot;elbowEdgeStyle&quot;,&quot;elbow&quot;:&quot;vertical&quot;,&quot;curved&quot;:0,&quot;rounded&quot;:0};size=0;" vertex="1" parent="1">
          <mxGeometry x="582.5" y="500" width="100" height="260" as="geometry" />
        </mxCell>
        <mxCell id="j5VOxmZojk0O5T2Iahud-13" value="" style="html=1;points=[];perimeter=orthogonalPerimeter;outlineConnect=0;targetShapes=umlLifeline;portConstraint=eastwest;newEdgeStyle={&quot;edgeStyle&quot;:&quot;elbowEdgeStyle&quot;,&quot;elbow&quot;:&quot;vertical&quot;,&quot;curved&quot;:0,&quot;rounded&quot;:0};" vertex="1" parent="j5VOxmZojk0O5T2Iahud-12">
          <mxGeometry x="45" y="70" width="10" height="40" as="geometry" />
        </mxCell>
        <mxCell id="j5VOxmZojk0O5T2Iahud-14" value="" style="shape=cylinder3;whiteSpace=wrap;html=1;boundedLbl=1;backgroundOutline=1;size=5.277760823567782;" vertex="1" parent="1">
          <mxGeometry x="645" y="460" width="17.5" height="20" as="geometry" />
        </mxCell>
        <mxCell id="j5VOxmZojk0O5T2Iahud-15" value="결제 요청" style="html=1;verticalAlign=bottom;endArrow=block;edgeStyle=elbowEdgeStyle;elbow=horizontal;curved=0;rounded=0;" edge="1" parent="1">
          <mxGeometry relative="1" as="geometry">
            <mxPoint x="458.5" y="580" as="sourcePoint" />
            <Array as="points">
              <mxPoint x="543.5" y="580" />
            </Array>
            <mxPoint x="629" y="580" as="targetPoint" />
          </mxGeometry>
        </mxCell>
        <mxCell id="j5VOxmZojk0O5T2Iahud-16" value="PG 서버" style="shape=umlActor;verticalLabelPosition=bottom;verticalAlign=top;html=1;" vertex="1" parent="1">
          <mxGeometry x="620" y="430" width="25" height="50" as="geometry" />
        </mxCell>
        <mxCell id="j5VOxmZojk0O5T2Iahud-17" value="return data" style="html=1;verticalAlign=bottom;endArrow=open;dashed=1;endSize=8;edgeStyle=elbowEdgeStyle;elbow=vertical;curved=0;rounded=0;" edge="1" parent="1">
          <mxGeometry relative="1" as="geometry">
            <mxPoint x="455.5" y="602" as="targetPoint" />
            <Array as="points">
              <mxPoint x="550.5" y="602" />
            </Array>
            <mxPoint x="625.5" y="602" as="sourcePoint" />
          </mxGeometry>
        </mxCell>
        <mxCell id="j5VOxmZojk0O5T2Iahud-18" value="alt" style="shape=umlFrame;whiteSpace=wrap;html=1;pointerEvents=0;recursiveResize=0;container=1;collapsible=0;width=50;height=30;" vertex="1" parent="1">
          <mxGeometry x="70" y="590" width="392.5" height="160" as="geometry" />
        </mxCell>
        <mxCell id="j5VOxmZojk0O5T2Iahud-19" value="결제 성공" style="html=1;verticalAlign=bottom;endArrow=open;dashed=1;endSize=8;edgeStyle=elbowEdgeStyle;elbow=horizontal;curved=0;rounded=0;" edge="1" parent="j5VOxmZojk0O5T2Iahud-18">
          <mxGeometry relative="1" as="geometry">
            <mxPoint x="22.5" y="60" as="targetPoint" />
            <Array as="points">
              <mxPoint x="117.5" y="60" />
            </Array>
            <mxPoint x="192.5" y="60" as="sourcePoint" />
            <mxPoint as="offset" />
          </mxGeometry>
        </mxCell>
        <mxCell id="j5VOxmZojk0O5T2Iahud-20" value="&lt;font color=&quot;#3333ff&quot;&gt;[성공]&lt;/font&gt;" style="text;html=1;align=center;verticalAlign=middle;resizable=0;points=[];autosize=1;strokeColor=none;fillColor=none;" vertex="1" parent="j5VOxmZojk0O5T2Iahud-18">
          <mxGeometry x="57.5" y="-6" width="50" height="30" as="geometry" />
        </mxCell>
        <mxCell id="j5VOxmZojk0O5T2Iahud-21" value="" style="endArrow=none;html=1;rounded=0;entryX=0.999;entryY=0.498;entryDx=0;entryDy=0;entryPerimeter=0;" edge="1" parent="j5VOxmZojk0O5T2Iahud-18" target="j5VOxmZojk0O5T2Iahud-18">
          <mxGeometry width="50" height="50" relative="1" as="geometry">
            <mxPoint x="2.5" y="79.5" as="sourcePoint" />
            <mxPoint x="382.5" y="80" as="targetPoint" />
          </mxGeometry>
        </mxCell>
        <mxCell id="j5VOxmZojk0O5T2Iahud-22" value="&lt;font color=&quot;#3333ff&quot;&gt;[실패]&lt;/font&gt;" style="text;html=1;align=center;verticalAlign=middle;resizable=0;points=[];autosize=1;strokeColor=none;fillColor=none;" vertex="1" parent="j5VOxmZojk0O5T2Iahud-18">
          <mxGeometry x="59.25" y="73" width="50" height="30" as="geometry" />
        </mxCell>
        <mxCell id="j5VOxmZojk0O5T2Iahud-23" value="reply data&lt;div&gt;(result = 성공)&lt;/div&gt;" style="html=1;verticalAlign=bottom;endArrow=open;dashed=1;endSize=8;edgeStyle=elbowEdgeStyle;elbow=horizontal;curved=0;rounded=0;" edge="1" parent="j5VOxmZojk0O5T2Iahud-18">
          <mxGeometry relative="1" as="geometry">
            <mxPoint x="205.5" y="30" as="targetPoint" />
            <Array as="points">
              <mxPoint x="300.5" y="30" />
            </Array>
            <mxPoint x="375.5" y="30" as="sourcePoint" />
            <mxPoint as="offset" />
          </mxGeometry>
        </mxCell>
        <mxCell id="j5VOxmZojk0O5T2Iahud-24" value="reply data&lt;div&gt;(result = 실패)&lt;/div&gt;" style="html=1;verticalAlign=bottom;endArrow=open;dashed=1;endSize=8;edgeStyle=elbowEdgeStyle;elbow=horizontal;curved=0;rounded=0;" edge="1" parent="j5VOxmZojk0O5T2Iahud-18">
          <mxGeometry relative="1" as="geometry">
            <mxPoint x="212.5" y="110" as="targetPoint" />
            <Array as="points">
              <mxPoint x="307.5" y="110" />
            </Array>
            <mxPoint x="382.5" y="110" as="sourcePoint" />
            <mxPoint as="offset" />
          </mxGeometry>
        </mxCell>
        <mxCell id="j5VOxmZojk0O5T2Iahud-25" value="결제 실패" style="html=1;verticalAlign=bottom;endArrow=open;dashed=1;endSize=8;edgeStyle=elbowEdgeStyle;elbow=horizontal;curved=0;rounded=0;" edge="1" parent="j5VOxmZojk0O5T2Iahud-18">
          <mxGeometry relative="1" as="geometry">
            <mxPoint x="22.5" y="127" as="targetPoint" />
            <Array as="points">
              <mxPoint x="117.5" y="127" />
            </Array>
            <mxPoint x="192.5" y="127" as="sourcePoint" />
            <mxPoint as="offset" />
          </mxGeometry>
        </mxCell>
        <mxCell id="7sI7qb94LZKPJRnD2jtG-1" value="" style="shape=cylinder3;whiteSpace=wrap;html=1;boundedLbl=1;backgroundOutline=1;size=5.277760823567782;" vertex="1" parent="1">
          <mxGeometry x="491.25" y="480" width="17.5" height="20" as="geometry" />
        </mxCell>
      </root>
    </mxGraphModel>
  </diagram>
  <diagram id="f5v4nU6mcruE6hb5zpPu" name="페이지-4">
    <mxGraphModel dx="842" dy="894" grid="1" gridSize="10" guides="1" tooltips="1" connect="1" arrows="1" fold="1" page="1" pageScale="1" pageWidth="827" pageHeight="1169" math="0" shadow="0">
      <root>
        <mxCell id="0" />
        <mxCell id="1" parent="0" />
        <mxCell id="Mw8XHhv1xWsjdw3iQn59-1" value="opt" style="shape=umlFrame;whiteSpace=wrap;html=1;pointerEvents=0;recursiveResize=0;container=1;collapsible=0;width=50;height=30;" vertex="1" parent="1">
          <mxGeometry x="41.25" y="120" width="450" height="260" as="geometry" />
        </mxCell>
        <mxCell id="Mw8XHhv1xWsjdw3iQn59-2" value="&lt;font color=&quot;#3333ff&quot;&gt;[결제 완료]&lt;/font&gt;" style="text;html=1;align=center;verticalAlign=middle;resizable=0;points=[];autosize=1;strokeColor=none;fillColor=none;" vertex="1" parent="Mw8XHhv1xWsjdw3iQn59-1">
          <mxGeometry x="66.25" width="80" height="30" as="geometry" />
        </mxCell>
        <mxCell id="Mw8XHhv1xWsjdw3iQn59-3" value="결제 내역 요청" style="html=1;verticalAlign=bottom;endArrow=block;edgeStyle=elbowEdgeStyle;elbow=horizontal;curved=0;rounded=0;" edge="1" parent="Mw8XHhv1xWsjdw3iQn59-1">
          <mxGeometry relative="1" as="geometry">
            <mxPoint x="53.25" y="50" as="sourcePoint" />
            <Array as="points">
              <mxPoint x="138.25" y="50" />
            </Array>
            <mxPoint x="223.75" y="50" as="targetPoint" />
          </mxGeometry>
        </mxCell>
        <mxCell id="Mw8XHhv1xWsjdw3iQn59-4" value="웹브라우저" style="shape=umlLifeline;perimeter=lifelinePerimeter;whiteSpace=wrap;html=1;container=0;dropTarget=0;collapsible=0;recursiveResize=0;outlineConnect=0;portConstraint=eastwest;newEdgeStyle={&quot;edgeStyle&quot;:&quot;elbowEdgeStyle&quot;,&quot;elbow&quot;:&quot;vertical&quot;,&quot;curved&quot;:0,&quot;rounded&quot;:0};" vertex="1" parent="1">
          <mxGeometry x="220" y="70" width="100" height="300" as="geometry" />
        </mxCell>
        <mxCell id="Mw8XHhv1xWsjdw3iQn59-5" value="" style="html=1;points=[];perimeter=orthogonalPerimeter;outlineConnect=0;targetShapes=umlLifeline;portConstraint=eastwest;newEdgeStyle={&quot;edgeStyle&quot;:&quot;elbowEdgeStyle&quot;,&quot;elbow&quot;:&quot;vertical&quot;,&quot;curved&quot;:0,&quot;rounded&quot;:0};" vertex="1" parent="Mw8XHhv1xWsjdw3iQn59-4">
          <mxGeometry x="45" y="90" width="10" height="170" as="geometry" />
        </mxCell>
        <mxCell id="Mw8XHhv1xWsjdw3iQn59-6" value="사용자" style="shape=umlActor;verticalLabelPosition=bottom;verticalAlign=top;html=1;" vertex="1" parent="1">
          <mxGeometry x="80" y="40" width="25" height="50" as="geometry" />
        </mxCell>
        <mxCell id="Mw8XHhv1xWsjdw3iQn59-7" value="" style="shape=umlLifeline;perimeter=lifelinePerimeter;whiteSpace=wrap;html=1;container=0;dropTarget=0;collapsible=0;recursiveResize=0;outlineConnect=0;portConstraint=eastwest;newEdgeStyle={&quot;edgeStyle&quot;:&quot;elbowEdgeStyle&quot;,&quot;elbow&quot;:&quot;vertical&quot;,&quot;curved&quot;:0,&quot;rounded&quot;:0};size=0;" vertex="1" parent="1">
          <mxGeometry x="42.5" y="110" width="100" height="260" as="geometry" />
        </mxCell>
        <mxCell id="Mw8XHhv1xWsjdw3iQn59-8" value="" style="html=1;points=[];perimeter=orthogonalPerimeter;outlineConnect=0;targetShapes=umlLifeline;portConstraint=eastwest;newEdgeStyle={&quot;edgeStyle&quot;:&quot;elbowEdgeStyle&quot;,&quot;elbow&quot;:&quot;vertical&quot;,&quot;curved&quot;:0,&quot;rounded&quot;:0};" vertex="1" parent="Mw8XHhv1xWsjdw3iQn59-7">
          <mxGeometry x="45" y="50" width="10" height="170" as="geometry" />
        </mxCell>
        <mxCell id="Mw8XHhv1xWsjdw3iQn59-9" value="서버 API" style="shape=umlLifeline;perimeter=lifelinePerimeter;whiteSpace=wrap;html=1;container=0;dropTarget=0;collapsible=0;recursiveResize=0;outlineConnect=0;portConstraint=eastwest;newEdgeStyle={&quot;edgeStyle&quot;:&quot;elbowEdgeStyle&quot;,&quot;elbow&quot;:&quot;vertical&quot;,&quot;curved&quot;:0,&quot;rounded&quot;:0};" vertex="1" parent="1">
          <mxGeometry x="402.5" y="70" width="100" height="300" as="geometry" />
        </mxCell>
        <mxCell id="Mw8XHhv1xWsjdw3iQn59-10" value="" style="html=1;points=[];perimeter=orthogonalPerimeter;outlineConnect=0;targetShapes=umlLifeline;portConstraint=eastwest;newEdgeStyle={&quot;edgeStyle&quot;:&quot;elbowEdgeStyle&quot;,&quot;elbow&quot;:&quot;vertical&quot;,&quot;curved&quot;:0,&quot;rounded&quot;:0};" vertex="1" parent="Mw8XHhv1xWsjdw3iQn59-9">
          <mxGeometry x="45" y="100" width="10" height="140" as="geometry" />
        </mxCell>
        <mxCell id="Mw8XHhv1xWsjdw3iQn59-11" value="결제 내역 요청" style="html=1;verticalAlign=bottom;endArrow=block;edgeStyle=elbowEdgeStyle;elbow=horizontal;curved=0;rounded=0;" edge="1" parent="1">
          <mxGeometry relative="1" as="geometry">
            <mxPoint x="277.5" y="175" as="sourcePoint" />
            <Array as="points">
              <mxPoint x="362.5" y="175" />
            </Array>
            <mxPoint x="448" y="175" as="targetPoint" />
          </mxGeometry>
        </mxCell>
        <mxCell id="Mw8XHhv1xWsjdw3iQn59-12" value="" style="shape=umlLifeline;perimeter=lifelinePerimeter;whiteSpace=wrap;html=1;container=0;dropTarget=0;collapsible=0;recursiveResize=0;outlineConnect=0;portConstraint=eastwest;newEdgeStyle={&quot;edgeStyle&quot;:&quot;elbowEdgeStyle&quot;,&quot;elbow&quot;:&quot;vertical&quot;,&quot;curved&quot;:0,&quot;rounded&quot;:0};size=0;" vertex="1" parent="1">
          <mxGeometry x="582.5" y="110" width="100" height="260" as="geometry" />
        </mxCell>
        <mxCell id="Mw8XHhv1xWsjdw3iQn59-13" value="" style="html=1;points=[];perimeter=orthogonalPerimeter;outlineConnect=0;targetShapes=umlLifeline;portConstraint=eastwest;newEdgeStyle={&quot;edgeStyle&quot;:&quot;elbowEdgeStyle&quot;,&quot;elbow&quot;:&quot;vertical&quot;,&quot;curved&quot;:0,&quot;rounded&quot;:0};" vertex="1" parent="Mw8XHhv1xWsjdw3iQn59-12">
          <mxGeometry x="45" y="70" width="10" height="40" as="geometry" />
        </mxCell>
        <mxCell id="Mw8XHhv1xWsjdw3iQn59-14" value="" style="shape=cylinder3;whiteSpace=wrap;html=1;boundedLbl=1;backgroundOutline=1;size=5.277760823567782;" vertex="1" parent="1">
          <mxGeometry x="645" y="70" width="17.5" height="20" as="geometry" />
        </mxCell>
        <mxCell id="Mw8XHhv1xWsjdw3iQn59-15" value="결제 내역 요청" style="html=1;verticalAlign=bottom;endArrow=block;edgeStyle=elbowEdgeStyle;elbow=horizontal;curved=0;rounded=0;" edge="1" parent="1">
          <mxGeometry relative="1" as="geometry">
            <mxPoint x="458.5" y="190" as="sourcePoint" />
            <Array as="points">
              <mxPoint x="543.5" y="190" />
            </Array>
            <mxPoint x="629" y="190" as="targetPoint" />
          </mxGeometry>
        </mxCell>
        <mxCell id="Mw8XHhv1xWsjdw3iQn59-16" value="PG 서버" style="shape=umlActor;verticalLabelPosition=bottom;verticalAlign=top;html=1;" vertex="1" parent="1">
          <mxGeometry x="620" y="40" width="25" height="50" as="geometry" />
        </mxCell>
        <mxCell id="Mw8XHhv1xWsjdw3iQn59-17" value="return data" style="html=1;verticalAlign=bottom;endArrow=open;dashed=1;endSize=8;edgeStyle=elbowEdgeStyle;elbow=vertical;curved=0;rounded=0;" edge="1" parent="1">
          <mxGeometry relative="1" as="geometry">
            <mxPoint x="455.5" y="212" as="targetPoint" />
            <Array as="points">
              <mxPoint x="550.5" y="212" />
            </Array>
            <mxPoint x="625.5" y="212" as="sourcePoint" />
          </mxGeometry>
        </mxCell>
        <mxCell id="Mw8XHhv1xWsjdw3iQn59-18" value="alt" style="shape=umlFrame;whiteSpace=wrap;html=1;pointerEvents=0;recursiveResize=0;container=1;collapsible=0;width=50;height=30;" vertex="1" parent="1">
          <mxGeometry x="70" y="200" width="392.5" height="160" as="geometry" />
        </mxCell>
        <mxCell id="Mw8XHhv1xWsjdw3iQn59-19" value="결제 성공" style="html=1;verticalAlign=bottom;endArrow=open;dashed=1;endSize=8;edgeStyle=elbowEdgeStyle;elbow=horizontal;curved=0;rounded=0;" edge="1" parent="Mw8XHhv1xWsjdw3iQn59-18">
          <mxGeometry relative="1" as="geometry">
            <mxPoint x="22.5" y="60" as="targetPoint" />
            <Array as="points">
              <mxPoint x="117.5" y="60" />
            </Array>
            <mxPoint x="192.5" y="60" as="sourcePoint" />
            <mxPoint as="offset" />
          </mxGeometry>
        </mxCell>
        <mxCell id="Mw8XHhv1xWsjdw3iQn59-20" value="&lt;font color=&quot;#3333ff&quot;&gt;[성공]&lt;/font&gt;" style="text;html=1;align=center;verticalAlign=middle;resizable=0;points=[];autosize=1;strokeColor=none;fillColor=none;" vertex="1" parent="Mw8XHhv1xWsjdw3iQn59-18">
          <mxGeometry x="57.5" y="-6" width="50" height="30" as="geometry" />
        </mxCell>
        <mxCell id="Mw8XHhv1xWsjdw3iQn59-21" value="" style="endArrow=none;html=1;rounded=0;entryX=0.999;entryY=0.498;entryDx=0;entryDy=0;entryPerimeter=0;" edge="1" parent="Mw8XHhv1xWsjdw3iQn59-18" target="Mw8XHhv1xWsjdw3iQn59-18">
          <mxGeometry width="50" height="50" relative="1" as="geometry">
            <mxPoint x="2.5" y="79.5" as="sourcePoint" />
            <mxPoint x="382.5" y="80" as="targetPoint" />
          </mxGeometry>
        </mxCell>
        <mxCell id="Mw8XHhv1xWsjdw3iQn59-22" value="&lt;font color=&quot;#3333ff&quot;&gt;[실패]&lt;/font&gt;" style="text;html=1;align=center;verticalAlign=middle;resizable=0;points=[];autosize=1;strokeColor=none;fillColor=none;" vertex="1" parent="Mw8XHhv1xWsjdw3iQn59-18">
          <mxGeometry x="59.25" y="73" width="50" height="30" as="geometry" />
        </mxCell>
        <mxCell id="Mw8XHhv1xWsjdw3iQn59-23" value="reply data&lt;div&gt;(result = 성공)&lt;/div&gt;" style="html=1;verticalAlign=bottom;endArrow=open;dashed=1;endSize=8;edgeStyle=elbowEdgeStyle;elbow=horizontal;curved=0;rounded=0;" edge="1" parent="Mw8XHhv1xWsjdw3iQn59-18">
          <mxGeometry relative="1" as="geometry">
            <mxPoint x="205.5" y="30" as="targetPoint" />
            <Array as="points">
              <mxPoint x="300.5" y="30" />
            </Array>
            <mxPoint x="375.5" y="30" as="sourcePoint" />
            <mxPoint as="offset" />
          </mxGeometry>
        </mxCell>
        <mxCell id="Mw8XHhv1xWsjdw3iQn59-24" value="reply data&lt;div&gt;(result = 실패)&lt;/div&gt;" style="html=1;verticalAlign=bottom;endArrow=open;dashed=1;endSize=8;edgeStyle=elbowEdgeStyle;elbow=horizontal;curved=0;rounded=0;" edge="1" parent="Mw8XHhv1xWsjdw3iQn59-18">
          <mxGeometry relative="1" as="geometry">
            <mxPoint x="212.5" y="110" as="targetPoint" />
            <Array as="points">
              <mxPoint x="307.5" y="110" />
            </Array>
            <mxPoint x="382.5" y="110" as="sourcePoint" />
            <mxPoint as="offset" />
          </mxGeometry>
        </mxCell>
        <mxCell id="Mw8XHhv1xWsjdw3iQn59-25" value="결제 실패" style="html=1;verticalAlign=bottom;endArrow=open;dashed=1;endSize=8;edgeStyle=elbowEdgeStyle;elbow=horizontal;curved=0;rounded=0;" edge="1" parent="Mw8XHhv1xWsjdw3iQn59-18">
          <mxGeometry relative="1" as="geometry">
            <mxPoint x="22.5" y="127" as="targetPoint" />
            <Array as="points">
              <mxPoint x="117.5" y="127" />
            </Array>
            <mxPoint x="192.5" y="127" as="sourcePoint" />
            <mxPoint as="offset" />
          </mxGeometry>
        </mxCell>
        <mxCell id="Mw8XHhv1xWsjdw3iQn59-26" value="" style="shape=cylinder3;whiteSpace=wrap;html=1;boundedLbl=1;backgroundOutline=1;size=5.277760823567782;" vertex="1" parent="1">
          <mxGeometry x="491.25" y="90" width="17.5" height="20" as="geometry" />
        </mxCell>
      </root>
    </mxGraphModel>
  </diagram>
</mxfile>
